<mxfile host="app.diagrams.net" modified="2023-05-16T12:02:53.035Z" agent="Mozilla/5.0 (X11; Linux x86_64) AppleWebKit/537.36 (KHTML, like Gecko) Chrome/110.0.0.0 Safari/537.36" etag="0jzxKWU6jxtPvl2JUarG" version="21.3.2" type="device">
  <diagram name="Страница 1" id="Rqne1-Q-YqlPjCGoqIJe">
    <mxGraphModel dx="1956" dy="1060" grid="1" gridSize="10" guides="1" tooltips="1" connect="1" arrows="1" fold="1" page="1" pageScale="1" pageWidth="300" pageHeight="1100" math="1" shadow="0">
      <root>
        <mxCell id="0" />
        <mxCell id="1" parent="0" />
        <mxCell id="8tuHMPIzyi8VBsE8fK2_-6" style="edgeStyle=orthogonalEdgeStyle;rounded=0;orthogonalLoop=1;jettySize=auto;html=1;exitX=0.5;exitY=1;exitDx=0;exitDy=0;entryX=0.5;entryY=0;entryDx=0;entryDy=0;" edge="1" parent="1" source="8tuHMPIzyi8VBsE8fK2_-1" target="8tuHMPIzyi8VBsE8fK2_-4">
          <mxGeometry relative="1" as="geometry" />
        </mxCell>
        <mxCell id="8tuHMPIzyi8VBsE8fK2_-1" value="&lt;font style=&quot;font-size: 16px;&quot;&gt;Начало&lt;/font&gt;" style="rounded=1;whiteSpace=wrap;html=1;arcSize=50;fontSize=14;fontFamily=Times New Roman;" vertex="1" parent="1">
          <mxGeometry x="53.75" y="27" width="190" height="56.75" as="geometry" />
        </mxCell>
        <mxCell id="8tuHMPIzyi8VBsE8fK2_-8" style="edgeStyle=orthogonalEdgeStyle;rounded=0;orthogonalLoop=1;jettySize=auto;html=1;exitX=0.5;exitY=1;exitDx=0;exitDy=0;entryX=0.5;entryY=0;entryDx=0;entryDy=0;" edge="1" parent="1" source="8tuHMPIzyi8VBsE8fK2_-2" target="8tuHMPIzyi8VBsE8fK2_-3">
          <mxGeometry relative="1" as="geometry" />
        </mxCell>
        <mxCell id="8tuHMPIzyi8VBsE8fK2_-2" value="&lt;font style=&quot;font-size: 16px;&quot; face=&quot;Times New Roman&quot;&gt;Для каждого байта страницы&lt;/font&gt;" style="shape=loopLimit;whiteSpace=wrap;html=1;strokeWidth=1;" vertex="1" parent="1">
          <mxGeometry x="52.879999999999995" y="217" width="191.75" height="70" as="geometry" />
        </mxCell>
        <mxCell id="8tuHMPIzyi8VBsE8fK2_-9" style="edgeStyle=orthogonalEdgeStyle;rounded=0;orthogonalLoop=1;jettySize=auto;html=1;exitX=0.5;exitY=1;exitDx=0;exitDy=0;entryX=0.5;entryY=1;entryDx=0;entryDy=0;" edge="1" parent="1" source="8tuHMPIzyi8VBsE8fK2_-3" target="8tuHMPIzyi8VBsE8fK2_-5">
          <mxGeometry relative="1" as="geometry" />
        </mxCell>
        <mxCell id="8tuHMPIzyi8VBsE8fK2_-3" value="&lt;span style=&quot;font-size: 16px;&quot;&gt;Увеличить элемент массива частот байтов с индексом, равным байту&amp;nbsp;&lt;/span&gt;" style="shape=process;whiteSpace=wrap;html=1;backgroundOutline=1;fontSize=14;size=0;fontFamily=Times New Roman;" vertex="1" parent="1">
          <mxGeometry x="52" y="317" width="193.5" height="65.5" as="geometry" />
        </mxCell>
        <mxCell id="8tuHMPIzyi8VBsE8fK2_-7" style="edgeStyle=orthogonalEdgeStyle;rounded=0;orthogonalLoop=1;jettySize=auto;html=1;exitX=0.5;exitY=1;exitDx=0;exitDy=0;entryX=0.5;entryY=0;entryDx=0;entryDy=0;" edge="1" parent="1" source="8tuHMPIzyi8VBsE8fK2_-4" target="8tuHMPIzyi8VBsE8fK2_-2">
          <mxGeometry relative="1" as="geometry" />
        </mxCell>
        <mxCell id="8tuHMPIzyi8VBsE8fK2_-4" value="&lt;span style=&quot;font-size: 16px;&quot;&gt;Инициализировать массив частот байтов и значение энтропии нулями&lt;/span&gt;" style="shape=process;whiteSpace=wrap;html=1;backgroundOutline=1;fontSize=14;size=0;fontFamily=Times New Roman;" vertex="1" parent="1">
          <mxGeometry x="52" y="117" width="193.5" height="65.5" as="geometry" />
        </mxCell>
        <mxCell id="8tuHMPIzyi8VBsE8fK2_-15" style="edgeStyle=orthogonalEdgeStyle;rounded=0;orthogonalLoop=1;jettySize=auto;html=1;exitX=0.5;exitY=0;exitDx=0;exitDy=0;entryX=0.5;entryY=0;entryDx=0;entryDy=0;" edge="1" parent="1" source="8tuHMPIzyi8VBsE8fK2_-5" target="8tuHMPIzyi8VBsE8fK2_-11">
          <mxGeometry relative="1" as="geometry" />
        </mxCell>
        <mxCell id="8tuHMPIzyi8VBsE8fK2_-5" value="" style="shape=loopLimit;whiteSpace=wrap;html=1;strokeWidth=1;direction=west;fontFamily=Times New Roman;fontSize=14;" vertex="1" parent="1">
          <mxGeometry x="53.75" y="417" width="190" height="70" as="geometry" />
        </mxCell>
        <mxCell id="8tuHMPIzyi8VBsE8fK2_-10" style="edgeStyle=orthogonalEdgeStyle;rounded=0;orthogonalLoop=1;jettySize=auto;html=1;exitX=0.5;exitY=1;exitDx=0;exitDy=0;entryX=0.5;entryY=0;entryDx=0;entryDy=0;" edge="1" parent="1" source="8tuHMPIzyi8VBsE8fK2_-11" target="8tuHMPIzyi8VBsE8fK2_-13">
          <mxGeometry relative="1" as="geometry" />
        </mxCell>
        <mxCell id="8tuHMPIzyi8VBsE8fK2_-11" value="&lt;font style=&quot;font-size: 16px;&quot; face=&quot;Times New Roman&quot;&gt;Для каждого значения байта&lt;/font&gt;" style="shape=loopLimit;whiteSpace=wrap;html=1;strokeWidth=1;" vertex="1" parent="1">
          <mxGeometry x="52.879999999999995" y="517" width="191.75" height="70" as="geometry" />
        </mxCell>
        <mxCell id="8tuHMPIzyi8VBsE8fK2_-17" style="edgeStyle=orthogonalEdgeStyle;rounded=0;orthogonalLoop=1;jettySize=auto;html=1;exitX=0.5;exitY=1;exitDx=0;exitDy=0;entryX=0.5;entryY=0;entryDx=0;entryDy=0;" edge="1" parent="1" source="8tuHMPIzyi8VBsE8fK2_-13" target="8tuHMPIzyi8VBsE8fK2_-16">
          <mxGeometry relative="1" as="geometry" />
        </mxCell>
        <mxCell id="8tuHMPIzyi8VBsE8fK2_-13" value="&lt;span style=&quot;font-size: 16px;&quot;&gt;Посчитать вероятность появления байта&lt;br&gt;&lt;/span&gt;" style="shape=process;whiteSpace=wrap;html=1;backgroundOutline=1;fontSize=14;size=0;fontFamily=Times New Roman;" vertex="1" parent="1">
          <mxGeometry x="52" y="617" width="193.5" height="65.5" as="geometry" />
        </mxCell>
        <mxCell id="8tuHMPIzyi8VBsE8fK2_-24" style="edgeStyle=orthogonalEdgeStyle;rounded=0;orthogonalLoop=1;jettySize=auto;html=1;exitX=0.5;exitY=0;exitDx=0;exitDy=0;entryX=0.5;entryY=0;entryDx=0;entryDy=0;" edge="1" parent="1" source="8tuHMPIzyi8VBsE8fK2_-14" target="8tuHMPIzyi8VBsE8fK2_-23">
          <mxGeometry relative="1" as="geometry" />
        </mxCell>
        <mxCell id="8tuHMPIzyi8VBsE8fK2_-14" value="" style="shape=loopLimit;whiteSpace=wrap;html=1;strokeWidth=1;direction=west;fontFamily=Times New Roman;fontSize=14;" vertex="1" parent="1">
          <mxGeometry x="53.75" y="817" width="190" height="70" as="geometry" />
        </mxCell>
        <mxCell id="8tuHMPIzyi8VBsE8fK2_-21" style="edgeStyle=orthogonalEdgeStyle;rounded=0;orthogonalLoop=1;jettySize=auto;html=1;exitX=0.5;exitY=1;exitDx=0;exitDy=0;entryX=0.5;entryY=1;entryDx=0;entryDy=0;" edge="1" parent="1" source="8tuHMPIzyi8VBsE8fK2_-16" target="8tuHMPIzyi8VBsE8fK2_-14">
          <mxGeometry relative="1" as="geometry" />
        </mxCell>
        <mxCell id="8tuHMPIzyi8VBsE8fK2_-16" value="&lt;span style=&quot;font-size: 16px;&quot;&gt;Увеличить значение энтропии на&amp;nbsp;&lt;br&gt;&lt;br&gt;&lt;/span&gt;" style="shape=process;whiteSpace=wrap;html=1;backgroundOutline=1;fontSize=14;size=0;fontFamily=Times New Roman;" vertex="1" parent="1">
          <mxGeometry x="53.75" y="717" width="193.5" height="65.5" as="geometry" />
        </mxCell>
        <mxCell id="8tuHMPIzyi8VBsE8fK2_-18" value="&lt;font face=&quot;Times New Roman&quot;&gt;&lt;span style=&quot;font-size: 16px;&quot;&gt;$$p$$&lt;br&gt;&lt;/span&gt;&lt;/font&gt;" style="text;html=1;strokeColor=none;fillColor=none;align=center;verticalAlign=middle;whiteSpace=wrap;rounded=0;" vertex="1" parent="1">
          <mxGeometry x="183.75" y="652.5" width="60" height="30" as="geometry" />
        </mxCell>
        <mxCell id="8tuHMPIzyi8VBsE8fK2_-19" value="&lt;font face=&quot;Times New Roman&quot;&gt;&lt;span style=&quot;font-size: 16px;&quot;&gt;$$p \cdot log_2p$$&lt;br&gt;&lt;/span&gt;&lt;/font&gt;" style="text;html=1;strokeColor=none;fillColor=none;align=center;verticalAlign=middle;whiteSpace=wrap;rounded=0;" vertex="1" parent="1">
          <mxGeometry x="120.5" y="772.5" width="60" height="10" as="geometry" />
        </mxCell>
        <mxCell id="8tuHMPIzyi8VBsE8fK2_-20" style="edgeStyle=orthogonalEdgeStyle;rounded=0;orthogonalLoop=1;jettySize=auto;html=1;exitX=0.5;exitY=1;exitDx=0;exitDy=0;" edge="1" parent="1" source="8tuHMPIzyi8VBsE8fK2_-19" target="8tuHMPIzyi8VBsE8fK2_-19">
          <mxGeometry relative="1" as="geometry" />
        </mxCell>
        <mxCell id="8tuHMPIzyi8VBsE8fK2_-26" style="edgeStyle=orthogonalEdgeStyle;rounded=0;orthogonalLoop=1;jettySize=auto;html=1;exitX=0.5;exitY=1;exitDx=0;exitDy=0;entryX=0.5;entryY=0;entryDx=0;entryDy=0;" edge="1" parent="1" source="8tuHMPIzyi8VBsE8fK2_-23" target="8tuHMPIzyi8VBsE8fK2_-25">
          <mxGeometry relative="1" as="geometry" />
        </mxCell>
        <mxCell id="8tuHMPIzyi8VBsE8fK2_-23" value="&lt;span style=&quot;font-size: 16px;&quot;&gt;Вернуть противоположное значение энтропии&lt;/span&gt;" style="shape=process;whiteSpace=wrap;html=1;backgroundOutline=1;fontSize=14;size=0;fontFamily=Times New Roman;" vertex="1" parent="1">
          <mxGeometry x="52" y="917" width="193.5" height="65.5" as="geometry" />
        </mxCell>
        <mxCell id="8tuHMPIzyi8VBsE8fK2_-25" value="&lt;font style=&quot;font-size: 16px;&quot;&gt;Конец&lt;/font&gt;" style="rounded=1;whiteSpace=wrap;html=1;arcSize=50;fontSize=14;fontFamily=Times New Roman;" vertex="1" parent="1">
          <mxGeometry x="53.75" y="1017" width="190" height="56.75" as="geometry" />
        </mxCell>
      </root>
    </mxGraphModel>
  </diagram>
</mxfile>
